<?xml version="1.0" encoding="utf-8"?>
<!-- Generator: Adobe Illustrator 21.1.0, SVG Export Plug-In . SVG Version: 6.00 Build 0)  -->
<svg version="1.1" id="Layer_1" xmlns="http://www.w3.org/2000/svg" xmlns:xlink="http://www.w3.org/1999/xlink" x="0px" y="0px"
	 viewBox="0 0 72 38.2" style="enable-background:new 0 0 72 38.2;" xml:space="preserve">
<style type="text/css">
	.st0{fill:#0B9ED9;}
</style>
<g>
	<g>
		<g>
			<rect x="20.7" y="25.2" class="st0" width="3.1" height="12.3"/>
			<path class="st0" d="M48.7,28.7c-0.1-0.1-1.1-0.7-2.6-0.7c-2,0-3.4,1.4-3.4,3.3c0,1.8,1.3,3.3,3.4,3.3c1.5,0,2.5-0.6,2.6-0.7v3.3
				c-0.4,0.1-1.4,0.4-2.8,0.4c-3.5,0-6.5-2.4-6.5-6.3c0-3.7,2.8-6.3,6.5-6.3c1.5,0,2.5,0.4,2.8,0.4V28.7z"/>
			<path class="st0" d="M16.4,28.7c-0.1-0.1-1.1-0.7-2.6-0.7c-2,0-3.4,1.4-3.4,3.3c0,1.8,1.3,3.3,3.4,3.3c1.5,0,2.5-0.6,2.6-0.7v3.3
				c-0.4,0.1-1.4,0.4-2.8,0.4c-3.5,0-6.5-2.4-6.5-6.3c0-3.7,2.8-6.3,6.5-6.3c1.5,0,2.5,0.4,2.8,0.4V28.7z"/>
			<path class="st0" d="M64.9,31.3c0,3.5-2.7,6.3-6.5,6.3c-3.8,0-6.5-2.8-6.5-6.3c0-3.5,2.7-6.3,6.5-6.3
				C62.2,25,64.9,27.8,64.9,31.3z M58.5,28.1c-1.8,0-3.2,1.4-3.2,3.2c0,1.8,1.4,3.2,3.2,3.2c1.8,0,3.2-1.4,3.2-3.2
				C61.7,29.5,60.3,28.1,58.5,28.1z"/>
			<path class="st0" d="M35.5,28c0,0-1.3-0.4-2.4-0.4c-1.2,0-1.9,0.4-1.9,1c0,0.7,0.9,1,1.4,1.2l0.9,0.3c2,0.6,2.9,2,2.9,3.5
				c0,3.1-2.7,4.1-5.1,4.1c-1.6,0-3.2-0.3-3.3-0.3v-2.8c0.3,0.1,1.6,0.5,2.9,0.5c1.5,0,2.2-0.4,2.2-1.1c0-0.6-0.6-1-1.4-1.2
				c-0.2-0.1-0.5-0.2-0.7-0.2c-1.7-0.5-3.2-1.6-3.2-3.6c0-2.3,1.7-3.8,4.6-3.8c1.5,0,2.9,0.4,3,0.4V28z"/>
		</g>
	</g>
	<path class="st0" d="M3.8,12c0-0.8-0.7-1.5-1.5-1.5c-0.8,0-1.5,0.7-1.5,1.5v3.2c0,0.8,0.7,1.5,1.5,1.5c0.8,0,1.5-0.7,1.5-1.5V12z"
		/>
	<path class="st0" d="M12.2,7.8c0-0.8-0.7-1.5-1.5-1.5S9.2,7,9.2,7.8v7.4c0,0.8,0.7,1.5,1.5,1.5s1.5-0.7,1.5-1.5V7.8z"/>
	<path class="st0" d="M20.7,2c0-0.8-0.7-1.5-1.5-1.5c-0.8,0-1.5,0.7-1.5,1.5v16.3c0,0.8,0.7,1.5,1.5,1.5c0.8,0,1.5-0.7,1.5-1.5V2z"
		/>
	<path class="st0" d="M29.1,7.8c0-0.8-0.7-1.5-1.5-1.5C26.7,6.3,26,7,26,7.8v7.4c0,0.8,0.7,1.5,1.5,1.5c0.8,0,1.5-0.7,1.5-1.5V7.8z"
		/>
	<path class="st0" d="M37.5,12c0-0.8-0.7-1.5-1.5-1.5c-0.8,0-1.5,0.7-1.5,1.5v3.2c0,0.8,0.7,1.5,1.5,1.5c0.8,0,1.5-0.7,1.5-1.5V12z"
		/>
	<path class="st0" d="M46,7.8c0-0.8-0.7-1.5-1.5-1.5c-0.8,0-1.5,0.7-1.5,1.5v7.4c0,0.8,0.7,1.5,1.5,1.5c0.8,0,1.5-0.7,1.5-1.5V7.8z"
		/>
	<path class="st0" d="M54.4,2c0-0.8-0.7-1.5-1.5-1.5c-0.8,0-1.5,0.7-1.5,1.5v16.3c0,0.8,0.7,1.5,1.5,1.5c0.8,0,1.5-0.7,1.5-1.5V2z"
		/>
	<path class="st0" d="M62.9,7.8c0-0.8-0.7-1.5-1.6-1.5c-0.8,0-1.5,0.7-1.5,1.5v7.4c0,0.8,0.7,1.5,1.5,1.5c0.9,0,1.6-0.7,1.6-1.5V7.8
		z"/>
	<path class="st0" d="M71.3,12c0-0.8-0.7-1.5-1.5-1.5c-0.8,0-1.5,0.7-1.5,1.5v3.2c0,0.8,0.7,1.5,1.5,1.5c0.8,0,1.5-0.7,1.5-1.5V12z"
		/>
</g>
</svg>
